<svg width="340" height="70" viewBox="0 0 340 70" fill="none" xmlns="http://www.w3.org/2000/svg">
<path d="M0 25C0 11.1929 11.1929 0 25 0H130.505C137.077 0 143.229 3.22839 146.963 8.63619L160.292 27.9397C165.016 34.7818 175.098 34.8622 179.931 28.0963L194.018 8.37525C197.772 3.11932 203.833 0 210.292 0H315C328.807 0 340 11.1929 340 25V45C340 58.8071 328.807 70 315 70H186.408C182.305 70 178.37 68.3702 175.469 65.4692C172.449 62.4486 167.551 62.4486 164.531 65.4692C161.63 68.3702 157.695 70 153.592 70H25C11.1929 70 0 58.8071 0 45V25Z" fill="#546A83"/>
</svg>
