<svg width="18" height="18" viewBox="0 0 18 18" fill="none" xmlns="http://www.w3.org/2000/svg">
<path d="M13.3097 11.4716H12.5197L12.2397 11.2016C13.4397 9.80157 14.0597 7.89157 13.7197 5.86157C13.2497 3.08157 10.9297 0.861565 8.12971 0.521565C3.89971 0.00156525 0.339708 3.56156 0.859708 7.79156C1.19971 10.5916 3.41971 12.9116 6.19971 13.3816C8.22971 13.7216 10.1397 13.1016 11.5397 11.9016L11.8097 12.1816V12.9716L16.0597 17.2216C16.4697 17.6316 17.1397 17.6316 17.5497 17.2216C17.9597 16.8116 17.9597 16.1416 17.5497 15.7316L13.3097 11.4716ZM7.30971 11.4716C4.81971 11.4716 2.80971 9.46157 2.80971 6.97157C2.80971 4.48157 4.81971 2.47157 7.30971 2.47157C9.79971 2.47157 11.8097 4.48157 11.8097 6.97157C11.8097 9.46157 9.79971 11.4716 7.30971 11.4716Z" fill="white"/>
</svg>
